<mxfile host="app.diagrams.net" agent="Mozilla/5.0 (Windows NT 10.0; Win64; x64; rv:138.0) Gecko/20100101 Firefox/138.0" version="27.0.4">
  <diagram name="Page-1" id="GC6-_4quQgHcAGPAqGgp">
    <mxGraphModel dx="2074" dy="1123" grid="1" gridSize="10" guides="1" tooltips="1" connect="1" arrows="1" fold="1" page="1" pageScale="1" pageWidth="2336" pageHeight="1654" math="0" shadow="0">
      <root>
        <mxCell id="0" />
        <mxCell id="1" parent="0" />
        <mxCell id="E8q-zRGyP3Mk961QcOPg-122" style="edgeStyle=orthogonalEdgeStyle;rounded=0;orthogonalLoop=1;jettySize=auto;html=1;exitX=0;exitY=0.75;exitDx=0;exitDy=0;endArrow=none;startFill=0;strokeColor=#CCCCCC;strokeWidth=2;" parent="1" source="E8q-zRGyP3Mk961QcOPg-4" edge="1">
          <mxGeometry relative="1" as="geometry">
            <mxPoint x="40" y="1440" as="targetPoint" />
            <Array as="points">
              <mxPoint x="920" y="1000" />
              <mxPoint x="840" y="1000" />
              <mxPoint x="840" y="1440" />
            </Array>
          </mxGeometry>
        </mxCell>
        <mxCell id="E8q-zRGyP3Mk961QcOPg-4" value="Detector" style="swimlane;whiteSpace=wrap;html=1;strokeWidth=2;fontSize=20;startSize=23;" parent="1" vertex="1">
          <mxGeometry x="920" y="880" width="1200" height="600" as="geometry">
            <mxRectangle x="720" y="960" width="320" height="160" as="alternateBounds" />
          </mxGeometry>
        </mxCell>
        <mxCell id="E8q-zRGyP3Mk961QcOPg-55" style="edgeStyle=orthogonalEdgeStyle;rounded=0;orthogonalLoop=1;jettySize=auto;html=1;exitX=0.5;exitY=1;exitDx=0;exitDy=0;endArrow=none;startFill=0;strokeWidth=2;fontSize=24;" parent="E8q-zRGyP3Mk961QcOPg-4" source="E8q-zRGyP3Mk961QcOPg-10" edge="1">
          <mxGeometry relative="1" as="geometry">
            <mxPoint x="280.0952380952381" y="279.97" as="targetPoint" />
          </mxGeometry>
        </mxCell>
        <mxCell id="E8q-zRGyP3Mk961QcOPg-126" style="edgeStyle=orthogonalEdgeStyle;rounded=0;orthogonalLoop=1;jettySize=auto;html=1;exitX=0;exitY=0.5;exitDx=0;exitDy=0;endArrow=none;startFill=0;strokeColor=light-dark(#00FF00,#EDEDED);strokeWidth=2;fontSize=24;" parent="E8q-zRGyP3Mk961QcOPg-4" source="E8q-zRGyP3Mk961QcOPg-10" edge="1">
          <mxGeometry relative="1" as="geometry">
            <mxPoint x="120" y="160" as="targetPoint" />
          </mxGeometry>
        </mxCell>
        <mxCell id="E8q-zRGyP3Mk961QcOPg-10" value="&lt;div&gt;&lt;font&gt;Counter&lt;br&gt;Detector&lt;/font&gt;&lt;/div&gt;" style="whiteSpace=wrap;html=1;aspect=fixed;strokeWidth=2;fontSize=24;fontColor=light-dark(#000000,#EDEDED);" parent="E8q-zRGyP3Mk961QcOPg-4" vertex="1">
          <mxGeometry x="200" y="79.97" width="160" height="160" as="geometry" />
        </mxCell>
        <mxCell id="E8q-zRGyP3Mk961QcOPg-127" style="edgeStyle=orthogonalEdgeStyle;rounded=0;orthogonalLoop=1;jettySize=auto;html=1;exitX=0;exitY=0.5;exitDx=0;exitDy=0;endArrow=none;startFill=0;strokeColor=#FF0000;strokeWidth=2;fontSize=24;" parent="E8q-zRGyP3Mk961QcOPg-4" source="E8q-zRGyP3Mk961QcOPg-11" edge="1">
          <mxGeometry relative="1" as="geometry">
            <mxPoint x="160" y="520" as="targetPoint" />
          </mxGeometry>
        </mxCell>
        <mxCell id="E8q-zRGyP3Mk961QcOPg-11" value="" style="triangle;whiteSpace=wrap;html=1;strokeWidth=2;fontSize=24;" parent="E8q-zRGyP3Mk961QcOPg-4" vertex="1">
          <mxGeometry x="200" y="179.97" width="30" height="40" as="geometry" />
        </mxCell>
        <mxCell id="E8q-zRGyP3Mk961QcOPg-52" style="edgeStyle=orthogonalEdgeStyle;rounded=0;orthogonalLoop=1;jettySize=auto;html=1;exitX=0;exitY=0.25;exitDx=0;exitDy=0;entryX=1;entryY=0.5;entryDx=0;entryDy=0;endArrow=none;startFill=0;strokeWidth=2;fontSize=24;" parent="E8q-zRGyP3Mk961QcOPg-4" source="E8q-zRGyP3Mk961QcOPg-10" target="E8q-zRGyP3Mk961QcOPg-10" edge="1">
          <mxGeometry relative="1" as="geometry">
            <Array as="points">
              <mxPoint x="160" y="119.97" />
              <mxPoint x="160" y="39.97" />
              <mxPoint x="400" y="39.97" />
              <mxPoint x="400" y="159.97" />
            </Array>
          </mxGeometry>
        </mxCell>
        <mxCell id="E8q-zRGyP3Mk961QcOPg-33" style="edgeStyle=orthogonalEdgeStyle;rounded=0;orthogonalLoop=1;jettySize=auto;html=1;exitX=0;exitY=0.25;exitDx=0;exitDy=0;endArrow=none;startFill=0;strokeColor=light-dark(#00FF00,#EDEDED);strokeWidth=2;fontSize=24;" parent="E8q-zRGyP3Mk961QcOPg-4" source="E8q-zRGyP3Mk961QcOPg-35" edge="1">
          <mxGeometry relative="1" as="geometry">
            <mxPoint x="120" y="310" as="targetPoint" />
          </mxGeometry>
        </mxCell>
        <mxCell id="E8q-zRGyP3Mk961QcOPg-34" style="edgeStyle=orthogonalEdgeStyle;rounded=0;orthogonalLoop=1;jettySize=auto;html=1;exitX=1;exitY=0.5;exitDx=0;exitDy=0;endArrow=none;startFill=0;entryX=0;entryY=0;entryDx=0;entryDy=0;strokeWidth=2;fontSize=24;" parent="E8q-zRGyP3Mk961QcOPg-4" source="E8q-zRGyP3Mk961QcOPg-35" edge="1">
          <mxGeometry relative="1" as="geometry">
            <mxPoint x="480.0000000000002" y="399.97" as="targetPoint" />
            <Array as="points">
              <mxPoint x="450" y="399.97" />
              <mxPoint x="450" y="399.97" />
            </Array>
          </mxGeometry>
        </mxCell>
        <mxCell id="E8q-zRGyP3Mk961QcOPg-89" style="edgeStyle=orthogonalEdgeStyle;rounded=0;orthogonalLoop=1;jettySize=auto;html=1;exitX=0.5;exitY=1;exitDx=0;exitDy=0;endArrow=none;startFill=0;strokeColor=#CCCCCC;strokeWidth=2;fontSize=24;" parent="E8q-zRGyP3Mk961QcOPg-4" source="E8q-zRGyP3Mk961QcOPg-35" edge="1">
          <mxGeometry relative="1" as="geometry">
            <mxPoint x="280" y="559.97" as="targetPoint" />
          </mxGeometry>
        </mxCell>
        <mxCell id="E8q-zRGyP3Mk961QcOPg-35" value="&lt;div&gt;&lt;font&gt;Falling&lt;br&gt;Edge&lt;br&gt;Detector&lt;/font&gt;&lt;/div&gt;" style="whiteSpace=wrap;html=1;aspect=fixed;strokeWidth=2;fontSize=24;fontColor=light-dark(#000000,#EDEDED);" parent="E8q-zRGyP3Mk961QcOPg-4" vertex="1">
          <mxGeometry x="200" y="319.97" width="160" height="160" as="geometry" />
        </mxCell>
        <mxCell id="E8q-zRGyP3Mk961QcOPg-36" value="" style="triangle;whiteSpace=wrap;html=1;strokeWidth=2;fontSize=24;" parent="E8q-zRGyP3Mk961QcOPg-4" vertex="1">
          <mxGeometry x="200" y="419.97" width="30" height="40" as="geometry" />
        </mxCell>
        <mxCell id="E8q-zRGyP3Mk961QcOPg-38" style="edgeStyle=orthogonalEdgeStyle;rounded=0;orthogonalLoop=1;jettySize=auto;html=1;exitX=0;exitY=0.75;exitDx=0;exitDy=0;endArrow=none;startFill=0;strokeColor=#FF0000;strokeWidth=2;fontSize=24;" parent="E8q-zRGyP3Mk961QcOPg-4" source="E8q-zRGyP3Mk961QcOPg-35" edge="1">
          <mxGeometry relative="1" as="geometry">
            <mxPoint x="160" y="439.97" as="targetPoint" />
            <mxPoint x="210" y="369.97" as="sourcePoint" />
          </mxGeometry>
        </mxCell>
        <mxCell id="E8q-zRGyP3Mk961QcOPg-60" style="edgeStyle=orthogonalEdgeStyle;rounded=0;orthogonalLoop=1;jettySize=auto;html=1;exitX=0.5;exitY=1;exitDx=0;exitDy=0;endArrow=none;startFill=0;strokeColor=#CCCCCC;strokeWidth=2;fontSize=24;" parent="E8q-zRGyP3Mk961QcOPg-4" source="E8q-zRGyP3Mk961QcOPg-61" edge="1">
          <mxGeometry relative="1" as="geometry">
            <mxPoint x="600" y="559.97" as="targetPoint" />
          </mxGeometry>
        </mxCell>
        <mxCell id="E8q-zRGyP3Mk961QcOPg-216" style="edgeStyle=orthogonalEdgeStyle;rounded=0;orthogonalLoop=1;jettySize=auto;html=1;exitX=1;exitY=0.5;exitDx=0;exitDy=0;endArrow=none;startFill=0;strokeColor=#3333FF;strokeWidth=2;fontSize=24;" parent="E8q-zRGyP3Mk961QcOPg-4" source="E8q-zRGyP3Mk961QcOPg-61" edge="1">
          <mxGeometry relative="1" as="geometry">
            <mxPoint x="1120" y="320" as="targetPoint" />
            <Array as="points">
              <mxPoint x="760" y="400" />
              <mxPoint x="760" y="280" />
              <mxPoint x="1040" y="280" />
              <mxPoint x="1040" y="320" />
            </Array>
          </mxGeometry>
        </mxCell>
        <mxCell id="E8q-zRGyP3Mk961QcOPg-61" value="&lt;div&gt;&lt;font&gt;Storing&lt;br&gt;Detector&lt;/font&gt;&lt;/div&gt;" style="whiteSpace=wrap;html=1;aspect=fixed;strokeWidth=2;fontSize=24;fontColor=light-dark(#000000,#EDEDED);" parent="E8q-zRGyP3Mk961QcOPg-4" vertex="1">
          <mxGeometry x="520" y="319.97" width="160" height="160" as="geometry" />
        </mxCell>
        <mxCell id="E8q-zRGyP3Mk961QcOPg-84" style="edgeStyle=orthogonalEdgeStyle;rounded=0;orthogonalLoop=1;jettySize=auto;html=1;exitX=0;exitY=0.5;exitDx=0;exitDy=0;endArrow=none;startFill=0;strokeColor=#FF0000;strokeWidth=2;fontSize=24;" parent="E8q-zRGyP3Mk961QcOPg-4" source="E8q-zRGyP3Mk961QcOPg-62" edge="1">
          <mxGeometry relative="1" as="geometry">
            <mxPoint x="480" y="519.97" as="targetPoint" />
          </mxGeometry>
        </mxCell>
        <mxCell id="E8q-zRGyP3Mk961QcOPg-62" value="" style="triangle;whiteSpace=wrap;html=1;strokeWidth=2;fontSize=24;" parent="E8q-zRGyP3Mk961QcOPg-4" vertex="1">
          <mxGeometry x="520" y="419.97" width="30" height="40" as="geometry" />
        </mxCell>
        <mxCell id="E8q-zRGyP3Mk961QcOPg-63" style="edgeStyle=orthogonalEdgeStyle;rounded=0;orthogonalLoop=1;jettySize=auto;html=1;exitX=0;exitY=0.5;exitDx=0;exitDy=0;endArrow=none;startFill=0;strokeWidth=2;fontSize=24;" parent="E8q-zRGyP3Mk961QcOPg-4" source="E8q-zRGyP3Mk961QcOPg-61" edge="1">
          <mxGeometry relative="1" as="geometry">
            <mxPoint x="480" y="399.97" as="targetPoint" />
            <mxPoint x="530" y="369.97" as="sourcePoint" />
          </mxGeometry>
        </mxCell>
        <mxCell id="E8q-zRGyP3Mk961QcOPg-71" style="edgeStyle=orthogonalEdgeStyle;rounded=0;orthogonalLoop=1;jettySize=auto;html=1;exitX=1;exitY=1;exitDx=0;exitDy=0;endArrow=none;startFill=0;strokeWidth=2;fontSize=24;" parent="E8q-zRGyP3Mk961QcOPg-4" edge="1">
          <mxGeometry relative="1" as="geometry">
            <mxPoint x="400" y="159.97" as="targetPoint" />
            <mxPoint x="520" y="359.97" as="sourcePoint" />
            <Array as="points">
              <mxPoint x="480" y="359.97" />
              <mxPoint x="480" y="159.97" />
            </Array>
          </mxGeometry>
        </mxCell>
        <mxCell id="E8q-zRGyP3Mk961QcOPg-75" style="edgeStyle=orthogonalEdgeStyle;rounded=0;orthogonalLoop=1;jettySize=auto;html=1;exitX=1;exitY=0.5;exitDx=0;exitDy=0;endArrow=none;startFill=0;strokeColor=#B266FF;strokeWidth=2;fontSize=24;" parent="E8q-zRGyP3Mk961QcOPg-4" source="E8q-zRGyP3Mk961QcOPg-76" edge="1">
          <mxGeometry relative="1" as="geometry">
            <mxPoint x="1120" y="400" as="targetPoint" />
          </mxGeometry>
        </mxCell>
        <mxCell id="E8q-zRGyP3Mk961QcOPg-88" style="edgeStyle=orthogonalEdgeStyle;rounded=0;orthogonalLoop=1;jettySize=auto;html=1;exitX=0.5;exitY=1;exitDx=0;exitDy=0;endArrow=none;startFill=0;strokeColor=#CCCCCC;strokeWidth=2;fontSize=24;" parent="E8q-zRGyP3Mk961QcOPg-4" source="E8q-zRGyP3Mk961QcOPg-76" edge="1">
          <mxGeometry relative="1" as="geometry">
            <mxPoint y="120" as="targetPoint" />
            <Array as="points">
              <mxPoint x="920" y="560" />
              <mxPoint x="40" y="560" />
              <mxPoint x="40" y="120" />
            </Array>
          </mxGeometry>
        </mxCell>
        <mxCell id="E8q-zRGyP3Mk961QcOPg-105" style="edgeStyle=orthogonalEdgeStyle;rounded=0;orthogonalLoop=1;jettySize=auto;html=1;exitX=1;exitY=0.25;exitDx=0;exitDy=0;endArrow=none;startFill=0;strokeColor=#CC6600;strokeWidth=2;fontSize=24;" parent="E8q-zRGyP3Mk961QcOPg-4" source="E8q-zRGyP3Mk961QcOPg-76" edge="1">
          <mxGeometry relative="1" as="geometry">
            <mxPoint x="1120" y="360" as="targetPoint" />
          </mxGeometry>
        </mxCell>
        <mxCell id="E8q-zRGyP3Mk961QcOPg-106" style="edgeStyle=orthogonalEdgeStyle;rounded=0;orthogonalLoop=1;jettySize=auto;html=1;exitX=1;exitY=0.75;exitDx=0;exitDy=0;endArrow=none;startFill=0;strokeColor=#B266FF;strokeWidth=2;fontSize=24;" parent="E8q-zRGyP3Mk961QcOPg-4" source="E8q-zRGyP3Mk961QcOPg-76" edge="1">
          <mxGeometry relative="1" as="geometry">
            <mxPoint x="1120" y="440" as="targetPoint" />
          </mxGeometry>
        </mxCell>
        <mxCell id="E8q-zRGyP3Mk961QcOPg-217" style="edgeStyle=orthogonalEdgeStyle;rounded=0;orthogonalLoop=1;jettySize=auto;html=1;exitX=0;exitY=0.25;exitDx=0;exitDy=0;endArrow=none;startFill=0;strokeColor=#3333FF;strokeWidth=2;fontSize=24;" parent="E8q-zRGyP3Mk961QcOPg-4" source="E8q-zRGyP3Mk961QcOPg-76" edge="1">
          <mxGeometry relative="1" as="geometry">
            <mxPoint x="760" y="359.79999999999995" as="targetPoint" />
          </mxGeometry>
        </mxCell>
        <mxCell id="E8q-zRGyP3Mk961QcOPg-76" value="&lt;div&gt;&lt;font&gt;Comparator&lt;br&gt;Detector&lt;/font&gt;&lt;/div&gt;" style="whiteSpace=wrap;html=1;aspect=fixed;strokeWidth=2;fontSize=24;fontColor=light-dark(#000000,#EDEDED);" parent="E8q-zRGyP3Mk961QcOPg-4" vertex="1">
          <mxGeometry x="840" y="319.97" width="160" height="160" as="geometry" />
        </mxCell>
        <mxCell id="E8q-zRGyP3Mk961QcOPg-77" value="" style="triangle;whiteSpace=wrap;html=1;strokeWidth=2;fontSize=24;" parent="E8q-zRGyP3Mk961QcOPg-4" vertex="1">
          <mxGeometry x="840" y="419.97" width="30" height="40" as="geometry" />
        </mxCell>
        <mxCell id="E8q-zRGyP3Mk961QcOPg-78" style="edgeStyle=orthogonalEdgeStyle;rounded=0;orthogonalLoop=1;jettySize=auto;html=1;exitX=0;exitY=0.75;exitDx=0;exitDy=0;endArrow=none;startFill=0;strokeColor=#FF0000;strokeWidth=2;fontSize=24;" parent="E8q-zRGyP3Mk961QcOPg-4" source="E8q-zRGyP3Mk961QcOPg-76" edge="1">
          <mxGeometry relative="1" as="geometry">
            <mxPoint x="760" y="440" as="targetPoint" />
            <mxPoint x="850" y="369.97" as="sourcePoint" />
          </mxGeometry>
        </mxCell>
        <mxCell id="E8q-zRGyP3Mk961QcOPg-85" style="edgeStyle=orthogonalEdgeStyle;rounded=0;orthogonalLoop=1;jettySize=auto;html=1;exitX=0;exitY=0;exitDx=0;exitDy=0;endArrow=none;startFill=0;strokeColor=#FF0000;strokeWidth=2;fontSize=24;" parent="E8q-zRGyP3Mk961QcOPg-4" edge="1">
          <mxGeometry relative="1" as="geometry">
            <mxPoint y="80" as="targetPoint" />
            <mxPoint x="760" y="440" as="sourcePoint" />
            <Array as="points">
              <mxPoint x="760" y="520" />
              <mxPoint x="80" y="520" />
              <mxPoint x="80" y="80" />
            </Array>
          </mxGeometry>
        </mxCell>
        <mxCell id="E8q-zRGyP3Mk961QcOPg-103" style="edgeStyle=orthogonalEdgeStyle;rounded=0;orthogonalLoop=1;jettySize=auto;html=1;exitX=0;exitY=0.25;exitDx=0;exitDy=0;exitPerimeter=0;endArrow=none;startFill=0;strokeColor=#CCCCCC;strokeWidth=2;fontSize=24;" parent="E8q-zRGyP3Mk961QcOPg-4" source="E8q-zRGyP3Mk961QcOPg-99" edge="1">
          <mxGeometry relative="1" as="geometry">
            <mxPoint x="400" y="560" as="targetPoint" />
            <Array as="points">
              <mxPoint x="400" y="290" />
              <mxPoint x="400" y="520" />
            </Array>
          </mxGeometry>
        </mxCell>
        <mxCell id="E8q-zRGyP3Mk961QcOPg-99" value="" style="verticalLabelPosition=bottom;shadow=0;dashed=0;align=center;html=1;verticalAlign=top;shape=mxgraph.electrical.logic_gates.logic_gate;operation=or;direction=west;strokeWidth=2;fontSize=24;" parent="E8q-zRGyP3Mk961QcOPg-4" vertex="1">
          <mxGeometry x="280" y="259.97" width="60" height="40" as="geometry" />
        </mxCell>
        <mxCell id="E8q-zRGyP3Mk961QcOPg-102" style="edgeStyle=orthogonalEdgeStyle;rounded=0;orthogonalLoop=1;jettySize=auto;html=1;exitX=0;exitY=0.5;exitDx=0;exitDy=0;exitPerimeter=0;endArrow=none;startFill=0;strokeColor=light-dark(#00FF00,#EDEDED);strokeWidth=2;fontSize=24;" parent="E8q-zRGyP3Mk961QcOPg-4" source="E8q-zRGyP3Mk961QcOPg-100" edge="1">
          <mxGeometry relative="1" as="geometry">
            <mxPoint y="40" as="targetPoint" />
            <Array as="points">
              <mxPoint x="440" y="270" />
              <mxPoint x="440" y="310" />
              <mxPoint x="120" y="310" />
              <mxPoint x="120" y="40" />
            </Array>
          </mxGeometry>
        </mxCell>
        <mxCell id="E8q-zRGyP3Mk961QcOPg-100" value="" style="verticalLabelPosition=bottom;shadow=0;dashed=0;align=center;html=1;verticalAlign=top;shape=mxgraph.electrical.logic_gates.inverter_2;direction=west;strokeWidth=2;fontSize=24;" parent="E8q-zRGyP3Mk961QcOPg-4" vertex="1">
          <mxGeometry x="360" y="249.97" width="60" height="40" as="geometry" />
        </mxCell>
        <mxCell id="E8q-zRGyP3Mk961QcOPg-231" style="edgeStyle=orthogonalEdgeStyle;rounded=0;orthogonalLoop=1;jettySize=auto;html=1;exitX=1;exitY=0.5;exitDx=0;exitDy=0;exitPerimeter=0;entryX=0;entryY=0.75;entryDx=0;entryDy=0;entryPerimeter=0;endArrow=none;startFill=0;strokeWidth=2;fontSize=24;" parent="E8q-zRGyP3Mk961QcOPg-4" source="E8q-zRGyP3Mk961QcOPg-100" target="E8q-zRGyP3Mk961QcOPg-99" edge="1">
          <mxGeometry relative="1" as="geometry" />
        </mxCell>
        <mxCell id="E8q-zRGyP3Mk961QcOPg-263" value="&lt;font&gt;q_fe&lt;/font&gt;" style="text;html=1;align=center;verticalAlign=middle;whiteSpace=wrap;rounded=0;fontSize=24;" parent="E8q-zRGyP3Mk961QcOPg-4" vertex="1">
          <mxGeometry x="400" y="360" width="80" height="40" as="geometry" />
        </mxCell>
        <mxCell id="E8q-zRGyP3Mk961QcOPg-264" value="&lt;font&gt;q_cnt_d&lt;/font&gt;" style="text;html=1;align=center;verticalAlign=middle;whiteSpace=wrap;rounded=0;fontSize=20;" parent="E8q-zRGyP3Mk961QcOPg-4" vertex="1">
          <mxGeometry x="400" y="120" width="80" height="40" as="geometry" />
        </mxCell>
        <mxCell id="E8q-zRGyP3Mk961QcOPg-270" value="&lt;font&gt;reset&lt;/font&gt;" style="text;html=1;align=center;verticalAlign=middle;whiteSpace=wrap;rounded=0;fontSize=24;" parent="E8q-zRGyP3Mk961QcOPg-4" vertex="1">
          <mxGeometry x="200" y="239.97000000000003" width="80" height="40" as="geometry" />
        </mxCell>
        <mxCell id="E8q-zRGyP3Mk961QcOPg-107" value="&lt;font style=&quot;font-size: 36px;&quot;&gt;GBF&lt;/font&gt;" style="ellipse;whiteSpace=wrap;html=1;strokeWidth=2;" parent="1" vertex="1">
          <mxGeometry x="120" y="600" width="200" height="160" as="geometry" />
        </mxCell>
        <mxCell id="E8q-zRGyP3Mk961QcOPg-15" style="edgeStyle=orthogonalEdgeStyle;rounded=0;orthogonalLoop=1;jettySize=auto;html=1;endArrow=none;startFill=0;entryX=0.935;entryY=0.26;entryDx=0;entryDy=0;entryPerimeter=0;strokeColor=light-dark(#00FF00,#EDEDED);strokeWidth=2;" parent="1" target="E8q-zRGyP3Mk961QcOPg-107" edge="1">
          <mxGeometry relative="1" as="geometry">
            <mxPoint x="720" y="920" as="targetPoint" />
            <mxPoint x="920" y="920" as="sourcePoint" />
            <Array as="points">
              <mxPoint x="760" y="920" />
              <mxPoint x="760" y="642" />
            </Array>
          </mxGeometry>
        </mxCell>
        <mxCell id="E8q-zRGyP3Mk961QcOPg-113" style="edgeStyle=orthogonalEdgeStyle;rounded=0;orthogonalLoop=1;jettySize=auto;html=1;exitX=0;exitY=0.5;exitDx=0;exitDy=0;endArrow=none;startFill=0;strokeWidth=2;" parent="1" edge="1">
          <mxGeometry relative="1" as="geometry">
            <mxPoint x="40" y="1160" as="targetPoint" />
            <mxPoint x="200" y="1160" as="sourcePoint" />
          </mxGeometry>
        </mxCell>
        <mxCell id="E8q-zRGyP3Mk961QcOPg-119" style="edgeStyle=orthogonalEdgeStyle;rounded=0;orthogonalLoop=1;jettySize=auto;html=1;exitX=0.3888888888888889;exitY=1;exitDx=10;exitDy=0;exitPerimeter=0;endArrow=none;startFill=0;strokeWidth=2;" parent="1" source="E8q-zRGyP3Mk961QcOPg-115" edge="1">
          <mxGeometry relative="1" as="geometry">
            <mxPoint x="160" y="960" as="targetPoint" />
            <Array as="points">
              <mxPoint x="160" y="1059" />
            </Array>
          </mxGeometry>
        </mxCell>
        <mxCell id="E8q-zRGyP3Mk961QcOPg-125" style="edgeStyle=orthogonalEdgeStyle;rounded=0;orthogonalLoop=1;jettySize=auto;html=1;exitX=1;exitY=0.5;exitDx=0;exitDy=-5;exitPerimeter=0;endArrow=none;startFill=0;strokeColor=#FF0000;strokeWidth=2;" parent="1" source="E8q-zRGyP3Mk961QcOPg-115" edge="1">
          <mxGeometry relative="1" as="geometry">
            <mxPoint x="920" y="960" as="targetPoint" />
            <Array as="points">
              <mxPoint x="800" y="990" />
              <mxPoint x="800" y="960" />
            </Array>
          </mxGeometry>
        </mxCell>
        <mxCell id="E8q-zRGyP3Mk961QcOPg-115" value="Mux" style="shadow=0;dashed=0;align=center;html=1;strokeWidth=2;shape=mxgraph.electrical.abstract.mux2;whiteSpace=wrap;" parent="1" vertex="1">
          <mxGeometry x="480" y="930" width="90" height="130" as="geometry" />
        </mxCell>
        <mxCell id="E8q-zRGyP3Mk961QcOPg-116" style="edgeStyle=orthogonalEdgeStyle;rounded=0;orthogonalLoop=1;jettySize=auto;html=1;exitX=0;exitY=0.6576923076923077;exitDx=0;exitDy=3;exitPerimeter=0;endArrow=none;startFill=0;strokeWidth=2;" parent="1" source="E8q-zRGyP3Mk961QcOPg-115" edge="1">
          <mxGeometry relative="1" as="geometry">
            <mxPoint x="305" y="720" as="targetPoint" />
            <Array as="points">
              <mxPoint x="440" y="1018" />
              <mxPoint x="440" y="720" />
            </Array>
          </mxGeometry>
        </mxCell>
        <mxCell id="E8q-zRGyP3Mk961QcOPg-117" style="edgeStyle=orthogonalEdgeStyle;rounded=0;orthogonalLoop=1;jettySize=auto;html=1;exitX=1;exitY=0.5;exitDx=0;exitDy=0;entryX=0;entryY=0.21923076923076923;entryDx=0;entryDy=3;entryPerimeter=0;endArrow=none;startFill=0;strokeWidth=2;" parent="1" source="E8q-zRGyP3Mk961QcOPg-110" target="E8q-zRGyP3Mk961QcOPg-115" edge="1">
          <mxGeometry relative="1" as="geometry" />
        </mxCell>
        <mxCell id="E8q-zRGyP3Mk961QcOPg-120" value="RO_SIRO" style="swimlane;whiteSpace=wrap;html=1;strokeWidth=2;fontSize=20;" parent="1" vertex="1">
          <mxGeometry x="140" y="880" width="280" height="360" as="geometry" />
        </mxCell>
        <mxCell id="E8q-zRGyP3Mk961QcOPg-110" value="&lt;font style=&quot;font-size: 36px;&quot;&gt;RO&lt;/font&gt;" style="ellipse;whiteSpace=wrap;html=1;strokeWidth=2;" parent="E8q-zRGyP3Mk961QcOPg-120" vertex="1">
          <mxGeometry x="60" y="40" width="200" height="80" as="geometry" />
        </mxCell>
        <mxCell id="E8q-zRGyP3Mk961QcOPg-121" value="&lt;font style=&quot;font-size: 36px;&quot;&gt;SIRO&lt;/font&gt;" style="ellipse;whiteSpace=wrap;html=1;strokeWidth=2;" parent="E8q-zRGyP3Mk961QcOPg-120" vertex="1">
          <mxGeometry x="60" y="240" width="200" height="80" as="geometry" />
        </mxCell>
        <mxCell id="E8q-zRGyP3Mk961QcOPg-128" value="&lt;div&gt;&lt;font style=&quot;font-size: 20px;&quot;&gt;ATM&lt;/font&gt;&lt;/div&gt;" style="swimlane;whiteSpace=wrap;html=1;strokeWidth=2;fontSize=12;startSize=23;" parent="1" vertex="1">
          <mxGeometry x="920" y="160" width="1200" height="680" as="geometry">
            <mxRectangle x="720" y="160" width="360" height="320" as="alternateBounds" />
          </mxGeometry>
        </mxCell>
        <mxCell id="E8q-zRGyP3Mk961QcOPg-194" style="edgeStyle=orthogonalEdgeStyle;rounded=0;orthogonalLoop=1;jettySize=auto;html=1;exitX=1;exitY=0.25;exitDx=0;exitDy=0;endArrow=none;startFill=0;strokeColor=#FF0080;strokeWidth=2;fontSize=24;" parent="E8q-zRGyP3Mk961QcOPg-128" source="E8q-zRGyP3Mk961QcOPg-131" edge="1">
          <mxGeometry relative="1" as="geometry">
            <mxPoint x="1240" y="120" as="targetPoint" />
            <Array as="points">
              <mxPoint x="680" y="200" />
              <mxPoint x="680" y="40" />
              <mxPoint x="1080" y="40" />
              <mxPoint x="1080" y="120" />
            </Array>
          </mxGeometry>
        </mxCell>
        <mxCell id="E8q-zRGyP3Mk961QcOPg-131" value="&lt;div&gt;&lt;font&gt;Counter&lt;br&gt;Edges&lt;br&gt;ATM&lt;/font&gt;&lt;/div&gt;" style="whiteSpace=wrap;html=1;aspect=fixed;strokeWidth=2;fontSize=24;fontColor=light-dark(#000000,#EDEDED);" parent="E8q-zRGyP3Mk961QcOPg-128" vertex="1">
          <mxGeometry x="200" y="159.97" width="160" height="160" as="geometry" />
        </mxCell>
        <mxCell id="E8q-zRGyP3Mk961QcOPg-198" style="edgeStyle=orthogonalEdgeStyle;rounded=0;orthogonalLoop=1;jettySize=auto;html=1;exitX=0;exitY=0.5;exitDx=0;exitDy=0;endArrow=none;startFill=0;strokeColor=light-dark(#00FF00,#EDEDED);strokeWidth=2;fontSize=24;" parent="E8q-zRGyP3Mk961QcOPg-128" source="E8q-zRGyP3Mk961QcOPg-133" edge="1">
          <mxGeometry relative="1" as="geometry">
            <mxPoint x="120" y="120" as="targetPoint" />
          </mxGeometry>
        </mxCell>
        <mxCell id="E8q-zRGyP3Mk961QcOPg-133" value="" style="triangle;whiteSpace=wrap;html=1;strokeWidth=2;fontSize=24;" parent="E8q-zRGyP3Mk961QcOPg-128" vertex="1">
          <mxGeometry x="200" y="259.97" width="30" height="40" as="geometry" />
        </mxCell>
        <mxCell id="E8q-zRGyP3Mk961QcOPg-135" style="edgeStyle=orthogonalEdgeStyle;rounded=0;orthogonalLoop=1;jettySize=auto;html=1;exitX=0;exitY=0.5;exitDx=0;exitDy=0;endArrow=none;startFill=0;strokeColor=light-dark(#00FF00,#EDEDED);strokeWidth=2;fontSize=24;" parent="E8q-zRGyP3Mk961QcOPg-128" source="E8q-zRGyP3Mk961QcOPg-193" edge="1">
          <mxGeometry relative="1" as="geometry">
            <mxPoint y="120" as="targetPoint" />
            <Array as="points">
              <mxPoint x="800" y="240" />
              <mxPoint x="800" y="280" />
              <mxPoint x="520" y="280" />
              <mxPoint x="520" y="120" />
            </Array>
          </mxGeometry>
        </mxCell>
        <mxCell id="E8q-zRGyP3Mk961QcOPg-136" style="edgeStyle=orthogonalEdgeStyle;rounded=0;orthogonalLoop=1;jettySize=auto;html=1;exitX=1;exitY=0.5;exitDx=0;exitDy=0;endArrow=none;startFill=0;entryX=0;entryY=0;entryDx=0;entryDy=0;strokeWidth=2;fontSize=24;" parent="E8q-zRGyP3Mk961QcOPg-128" source="E8q-zRGyP3Mk961QcOPg-138" edge="1">
          <mxGeometry relative="1" as="geometry">
            <mxPoint x="480.0000000000002" y="479.97" as="targetPoint" />
            <Array as="points">
              <mxPoint x="450" y="479.97" />
              <mxPoint x="450" y="479.97" />
            </Array>
          </mxGeometry>
        </mxCell>
        <mxCell id="E8q-zRGyP3Mk961QcOPg-269" style="edgeStyle=orthogonalEdgeStyle;rounded=0;orthogonalLoop=1;jettySize=auto;html=1;exitX=0.5;exitY=1;exitDx=0;exitDy=0;strokeWidth=2;endArrow=none;startFill=0;fontSize=24;" parent="E8q-zRGyP3Mk961QcOPg-128" source="E8q-zRGyP3Mk961QcOPg-138" edge="1">
          <mxGeometry relative="1" as="geometry">
            <mxPoint x="380" y="360" as="targetPoint" />
          </mxGeometry>
        </mxCell>
        <mxCell id="E8q-zRGyP3Mk961QcOPg-138" value="&lt;div&gt;&lt;font&gt;Counter&lt;br&gt;ATM&lt;/font&gt;&lt;/div&gt;" style="whiteSpace=wrap;html=1;aspect=fixed;strokeWidth=2;fontSize=24;fontColor=light-dark(#000000,#EDEDED);" parent="E8q-zRGyP3Mk961QcOPg-128" vertex="1">
          <mxGeometry x="200" y="399.97" width="160" height="160" as="geometry" />
        </mxCell>
        <mxCell id="E8q-zRGyP3Mk961QcOPg-139" value="" style="triangle;whiteSpace=wrap;html=1;strokeWidth=2;fontSize=24;" parent="E8q-zRGyP3Mk961QcOPg-128" vertex="1">
          <mxGeometry x="200" y="499.97" width="30" height="40" as="geometry" />
        </mxCell>
        <mxCell id="E8q-zRGyP3Mk961QcOPg-140" style="edgeStyle=orthogonalEdgeStyle;rounded=0;orthogonalLoop=1;jettySize=auto;html=1;exitX=0;exitY=0.75;exitDx=0;exitDy=0;endArrow=none;startFill=0;strokeColor=#FF0000;strokeWidth=2;fontSize=24;" parent="E8q-zRGyP3Mk961QcOPg-128" source="E8q-zRGyP3Mk961QcOPg-138" edge="1">
          <mxGeometry relative="1" as="geometry">
            <mxPoint x="160" y="600" as="targetPoint" />
            <mxPoint x="210" y="449.97" as="sourcePoint" />
          </mxGeometry>
        </mxCell>
        <mxCell id="E8q-zRGyP3Mk961QcOPg-141" style="edgeStyle=orthogonalEdgeStyle;rounded=0;orthogonalLoop=1;jettySize=auto;html=1;exitX=0.5;exitY=1;exitDx=0;exitDy=0;endArrow=none;startFill=0;strokeColor=#CCCCCC;strokeWidth=2;fontSize=24;" parent="E8q-zRGyP3Mk961QcOPg-128" source="E8q-zRGyP3Mk961QcOPg-143" edge="1">
          <mxGeometry relative="1" as="geometry">
            <mxPoint x="600" y="639.97" as="targetPoint" />
          </mxGeometry>
        </mxCell>
        <mxCell id="E8q-zRGyP3Mk961QcOPg-203" style="edgeStyle=orthogonalEdgeStyle;rounded=0;orthogonalLoop=1;jettySize=auto;html=1;exitX=1;exitY=0.5;exitDx=0;exitDy=0;endArrow=none;startFill=0;strokeColor=#00CCCC;strokeWidth=2;fontSize=24;" parent="E8q-zRGyP3Mk961QcOPg-128" source="E8q-zRGyP3Mk961QcOPg-143" edge="1">
          <mxGeometry relative="1" as="geometry">
            <mxPoint x="1240" y="520" as="targetPoint" />
            <Array as="points">
              <mxPoint x="760" y="480" />
              <mxPoint x="760" y="600" />
              <mxPoint x="1040" y="600" />
              <mxPoint x="1040" y="560" />
              <mxPoint x="1160" y="560" />
              <mxPoint x="1160" y="520" />
            </Array>
          </mxGeometry>
        </mxCell>
        <mxCell id="E8q-zRGyP3Mk961QcOPg-143" value="&lt;div&gt;&lt;font&gt;Storing&lt;br&gt;ATM&lt;/font&gt;&lt;/div&gt;" style="whiteSpace=wrap;html=1;aspect=fixed;strokeWidth=2;fontSize=24;fontColor=light-dark(#000000,#EDEDED);" parent="E8q-zRGyP3Mk961QcOPg-128" vertex="1">
          <mxGeometry x="520" y="399.97" width="160" height="160" as="geometry" />
        </mxCell>
        <mxCell id="E8q-zRGyP3Mk961QcOPg-144" style="edgeStyle=orthogonalEdgeStyle;rounded=0;orthogonalLoop=1;jettySize=auto;html=1;exitX=0;exitY=0.5;exitDx=0;exitDy=0;endArrow=none;startFill=0;strokeColor=#FF0000;strokeWidth=2;fontSize=24;" parent="E8q-zRGyP3Mk961QcOPg-128" source="E8q-zRGyP3Mk961QcOPg-145" edge="1">
          <mxGeometry relative="1" as="geometry">
            <mxPoint x="480" y="599.97" as="targetPoint" />
          </mxGeometry>
        </mxCell>
        <mxCell id="E8q-zRGyP3Mk961QcOPg-145" value="" style="triangle;whiteSpace=wrap;html=1;strokeWidth=2;fontSize=24;" parent="E8q-zRGyP3Mk961QcOPg-128" vertex="1">
          <mxGeometry x="520" y="499.97" width="30" height="40" as="geometry" />
        </mxCell>
        <mxCell id="E8q-zRGyP3Mk961QcOPg-146" style="edgeStyle=orthogonalEdgeStyle;rounded=0;orthogonalLoop=1;jettySize=auto;html=1;exitX=0;exitY=0.5;exitDx=0;exitDy=0;endArrow=none;startFill=0;strokeWidth=2;fontSize=24;" parent="E8q-zRGyP3Mk961QcOPg-128" source="E8q-zRGyP3Mk961QcOPg-143" edge="1">
          <mxGeometry relative="1" as="geometry">
            <mxPoint x="480" y="479.97" as="targetPoint" />
            <mxPoint x="530" y="449.97" as="sourcePoint" />
          </mxGeometry>
        </mxCell>
        <mxCell id="E8q-zRGyP3Mk961QcOPg-147" style="edgeStyle=orthogonalEdgeStyle;rounded=0;orthogonalLoop=1;jettySize=auto;html=1;exitX=1;exitY=1;exitDx=0;exitDy=0;endArrow=none;startFill=0;entryX=1;entryY=0.5;entryDx=0;entryDy=0;strokeColor=#FF0080;strokeWidth=2;fontSize=24;" parent="E8q-zRGyP3Mk961QcOPg-128" target="E8q-zRGyP3Mk961QcOPg-131" edge="1">
          <mxGeometry relative="1" as="geometry">
            <mxPoint x="400" y="239.97" as="targetPoint" />
            <mxPoint x="520" y="439.97" as="sourcePoint" />
            <Array as="points">
              <mxPoint x="480" y="440" />
              <mxPoint x="480" y="240" />
            </Array>
          </mxGeometry>
        </mxCell>
        <mxCell id="E8q-zRGyP3Mk961QcOPg-148" style="edgeStyle=orthogonalEdgeStyle;rounded=0;orthogonalLoop=1;jettySize=auto;html=1;exitX=1;exitY=0.5;exitDx=0;exitDy=0;endArrow=none;startFill=0;strokeColor=#990099;strokeWidth=2;fontSize=24;" parent="E8q-zRGyP3Mk961QcOPg-128" source="E8q-zRGyP3Mk961QcOPg-152" edge="1">
          <mxGeometry relative="1" as="geometry">
            <mxPoint x="1240" y="441" as="targetPoint" />
            <Array as="points">
              <mxPoint x="1080" y="480" />
              <mxPoint x="1080" y="441" />
              <mxPoint x="1240" y="441" />
            </Array>
          </mxGeometry>
        </mxCell>
        <mxCell id="E8q-zRGyP3Mk961QcOPg-149" style="edgeStyle=orthogonalEdgeStyle;rounded=0;orthogonalLoop=1;jettySize=auto;html=1;exitX=0.5;exitY=1;exitDx=0;exitDy=0;endArrow=none;startFill=0;strokeColor=#CCCCCC;strokeWidth=2;fontSize=24;" parent="E8q-zRGyP3Mk961QcOPg-128" source="E8q-zRGyP3Mk961QcOPg-152" edge="1">
          <mxGeometry relative="1" as="geometry">
            <mxPoint y="200" as="targetPoint" />
            <Array as="points">
              <mxPoint x="920" y="640" />
              <mxPoint x="40" y="640" />
              <mxPoint x="40" y="200" />
            </Array>
          </mxGeometry>
        </mxCell>
        <mxCell id="E8q-zRGyP3Mk961QcOPg-150" style="edgeStyle=orthogonalEdgeStyle;rounded=0;orthogonalLoop=1;jettySize=auto;html=1;exitX=1;exitY=0.25;exitDx=0;exitDy=0;endArrow=none;startFill=0;entryX=0;entryY=0.5;entryDx=0;entryDy=0;strokeWidth=2;fontSize=24;" parent="E8q-zRGyP3Mk961QcOPg-128" source="E8q-zRGyP3Mk961QcOPg-152" target="E8q-zRGyP3Mk961QcOPg-192" edge="1">
          <mxGeometry relative="1" as="geometry">
            <mxPoint x="1080" y="439.97" as="targetPoint" />
            <Array as="points">
              <mxPoint x="1040" y="440" />
              <mxPoint x="1040" y="360" />
              <mxPoint x="760" y="360" />
              <mxPoint x="760" y="200" />
            </Array>
          </mxGeometry>
        </mxCell>
        <mxCell id="E8q-zRGyP3Mk961QcOPg-199" style="edgeStyle=orthogonalEdgeStyle;rounded=0;orthogonalLoop=1;jettySize=auto;html=1;exitX=1;exitY=0.75;exitDx=0;exitDy=0;endArrow=none;startFill=0;strokeColor=#990099;strokeWidth=2;fontSize=24;" parent="E8q-zRGyP3Mk961QcOPg-128" source="E8q-zRGyP3Mk961QcOPg-152" edge="1">
          <mxGeometry relative="1" as="geometry">
            <mxPoint x="1240" y="480" as="targetPoint" />
            <Array as="points">
              <mxPoint x="1120" y="520" />
              <mxPoint x="1120" y="481" />
              <mxPoint x="1240" y="481" />
            </Array>
          </mxGeometry>
        </mxCell>
        <mxCell id="E8q-zRGyP3Mk961QcOPg-205" style="edgeStyle=orthogonalEdgeStyle;rounded=0;orthogonalLoop=1;jettySize=auto;html=1;exitX=0;exitY=0.25;exitDx=0;exitDy=0;endArrow=none;startFill=0;strokeColor=#FF0080;strokeWidth=2;fontSize=24;" parent="E8q-zRGyP3Mk961QcOPg-128" source="E8q-zRGyP3Mk961QcOPg-152" edge="1">
          <mxGeometry relative="1" as="geometry">
            <mxPoint x="1240" y="160" as="targetPoint" />
            <Array as="points">
              <mxPoint x="720" y="440" />
              <mxPoint x="720" y="80" />
              <mxPoint x="1040" y="80" />
              <mxPoint x="1040" y="160" />
            </Array>
          </mxGeometry>
        </mxCell>
        <mxCell id="E8q-zRGyP3Mk961QcOPg-208" style="edgeStyle=orthogonalEdgeStyle;rounded=0;orthogonalLoop=1;jettySize=auto;html=1;exitX=0;exitY=0.5;exitDx=0;exitDy=0;endArrow=none;startFill=0;entryX=1;entryY=0.5;entryDx=0;entryDy=0;strokeColor=#00CCCC;strokeWidth=2;fontSize=24;" parent="E8q-zRGyP3Mk961QcOPg-128" source="E8q-zRGyP3Mk961QcOPg-152" target="E8q-zRGyP3Mk961QcOPg-143" edge="1">
          <mxGeometry relative="1" as="geometry">
            <mxPoint x="720" y="480.28571428571445" as="targetPoint" />
          </mxGeometry>
        </mxCell>
        <mxCell id="E8q-zRGyP3Mk961QcOPg-152" value="&lt;div&gt;&lt;font&gt;Comparator&lt;br&gt;ATM&lt;/font&gt;&lt;/div&gt;" style="whiteSpace=wrap;html=1;aspect=fixed;strokeWidth=2;fontSize=24;fontColor=light-dark(#000000,#EDEDED);" parent="E8q-zRGyP3Mk961QcOPg-128" vertex="1">
          <mxGeometry x="840" y="399.97" width="160" height="160" as="geometry" />
        </mxCell>
        <mxCell id="E8q-zRGyP3Mk961QcOPg-153" value="" style="triangle;whiteSpace=wrap;html=1;strokeWidth=2;fontSize=24;" parent="E8q-zRGyP3Mk961QcOPg-128" vertex="1">
          <mxGeometry x="840" y="499.97" width="30" height="40" as="geometry" />
        </mxCell>
        <mxCell id="E8q-zRGyP3Mk961QcOPg-155" style="edgeStyle=orthogonalEdgeStyle;rounded=0;orthogonalLoop=1;jettySize=auto;html=1;exitX=0;exitY=0.5;exitDx=0;exitDy=0;endArrow=none;startFill=0;strokeColor=#FF0000;strokeWidth=2;fontSize=24;" parent="E8q-zRGyP3Mk961QcOPg-128" source="E8q-zRGyP3Mk961QcOPg-153" edge="1">
          <mxGeometry relative="1" as="geometry">
            <mxPoint y="160" as="targetPoint" />
            <mxPoint x="760" y="520" as="sourcePoint" />
            <Array as="points">
              <mxPoint x="720" y="520" />
              <mxPoint x="720" y="600" />
              <mxPoint x="80" y="600" />
              <mxPoint x="80" y="160" />
            </Array>
          </mxGeometry>
        </mxCell>
        <mxCell id="E8q-zRGyP3Mk961QcOPg-195" style="edgeStyle=orthogonalEdgeStyle;rounded=0;orthogonalLoop=1;jettySize=auto;html=1;exitX=1;exitY=0.5;exitDx=0;exitDy=0;endArrow=none;startFill=0;strokeColor=#CCCC00;strokeWidth=2;fontSize=24;" parent="E8q-zRGyP3Mk961QcOPg-128" source="E8q-zRGyP3Mk961QcOPg-192" edge="1">
          <mxGeometry relative="1" as="geometry">
            <mxPoint x="1240" y="200" as="targetPoint" />
            <Array as="points">
              <mxPoint x="1080" y="200" />
              <mxPoint x="1320" y="201" />
            </Array>
          </mxGeometry>
        </mxCell>
        <mxCell id="E8q-zRGyP3Mk961QcOPg-202" style="edgeStyle=orthogonalEdgeStyle;rounded=0;orthogonalLoop=1;jettySize=auto;html=1;exitX=0;exitY=0.25;exitDx=0;exitDy=0;endArrow=none;startFill=0;strokeColor=#FF0080;strokeWidth=2;fontSize=24;" parent="E8q-zRGyP3Mk961QcOPg-128" source="E8q-zRGyP3Mk961QcOPg-192" edge="1">
          <mxGeometry relative="1" as="geometry">
            <mxPoint x="480" y="240" as="targetPoint" />
            <Array as="points">
              <mxPoint x="720" y="160" />
              <mxPoint x="720" y="240" />
            </Array>
          </mxGeometry>
        </mxCell>
        <mxCell id="E8q-zRGyP3Mk961QcOPg-192" value="&lt;div&gt;&lt;font&gt;Alarm&lt;br&gt;Manage&lt;br&gt;ATM&lt;/font&gt;&lt;/div&gt;" style="whiteSpace=wrap;html=1;aspect=fixed;strokeWidth=2;fontSize=24;fontColor=light-dark(#000000,#EDEDED);" parent="E8q-zRGyP3Mk961QcOPg-128" vertex="1">
          <mxGeometry x="840" y="120" width="160" height="160" as="geometry" />
        </mxCell>
        <mxCell id="E8q-zRGyP3Mk961QcOPg-193" value="" style="triangle;whiteSpace=wrap;html=1;strokeWidth=2;fontSize=24;" parent="E8q-zRGyP3Mk961QcOPg-128" vertex="1">
          <mxGeometry x="840" y="220.00000000000003" width="30" height="40" as="geometry" />
        </mxCell>
        <mxCell id="E8q-zRGyP3Mk961QcOPg-266" style="edgeStyle=orthogonalEdgeStyle;rounded=0;orthogonalLoop=1;jettySize=auto;html=1;exitX=1;exitY=0.5;exitDx=0;exitDy=0;exitPerimeter=0;endArrow=none;startFill=0;strokeWidth=2;fontSize=24;" parent="E8q-zRGyP3Mk961QcOPg-128" source="E8q-zRGyP3Mk961QcOPg-265" edge="1">
          <mxGeometry relative="1" as="geometry">
            <mxPoint x="280" y="320" as="targetPoint" />
          </mxGeometry>
        </mxCell>
        <mxCell id="E8q-zRGyP3Mk961QcOPg-267" style="edgeStyle=orthogonalEdgeStyle;rounded=0;orthogonalLoop=1;jettySize=auto;html=1;exitX=0;exitY=0.25;exitDx=0;exitDy=0;exitPerimeter=0;endArrow=none;startFill=0;strokeWidth=2;strokeColor=#CCCCCC;fontSize=24;" parent="E8q-zRGyP3Mk961QcOPg-128" source="E8q-zRGyP3Mk961QcOPg-265" edge="1">
          <mxGeometry relative="1" as="geometry">
            <mxPoint x="440.2592592592591" y="640" as="targetPoint" />
            <Array as="points">
              <mxPoint x="440" y="440" />
              <mxPoint x="440" y="440" />
            </Array>
          </mxGeometry>
        </mxCell>
        <mxCell id="E8q-zRGyP3Mk961QcOPg-268" style="edgeStyle=orthogonalEdgeStyle;rounded=0;orthogonalLoop=1;jettySize=auto;html=1;exitX=0;exitY=0.75;exitDx=0;exitDy=0;exitPerimeter=0;strokeWidth=2;endArrow=none;startFill=0;strokeColor=#FF0080;fontSize=24;" parent="E8q-zRGyP3Mk961QcOPg-128" source="E8q-zRGyP3Mk961QcOPg-265" edge="1">
          <mxGeometry relative="1" as="geometry">
            <mxPoint x="480" y="349.85185185185173" as="targetPoint" />
          </mxGeometry>
        </mxCell>
        <mxCell id="E8q-zRGyP3Mk961QcOPg-265" value="" style="verticalLabelPosition=bottom;shadow=0;dashed=0;align=center;html=1;verticalAlign=top;shape=mxgraph.electrical.logic_gates.logic_gate;operation=or;direction=west;strokeWidth=2;fontSize=24;" parent="E8q-zRGyP3Mk961QcOPg-128" vertex="1">
          <mxGeometry x="380" y="340" width="60" height="40" as="geometry" />
        </mxCell>
        <mxCell id="E8q-zRGyP3Mk961QcOPg-271" value="&lt;font&gt;reset&lt;/font&gt;" style="text;html=1;align=center;verticalAlign=middle;whiteSpace=wrap;rounded=0;fontSize=24;" parent="E8q-zRGyP3Mk961QcOPg-128" vertex="1">
          <mxGeometry x="200" y="320" width="80" height="40" as="geometry" />
        </mxCell>
        <mxCell id="E8q-zRGyP3Mk961QcOPg-272" value="&lt;font&gt;reset&lt;/font&gt;" style="text;html=1;align=center;verticalAlign=middle;whiteSpace=wrap;rounded=0;fontSize=24;" parent="E8q-zRGyP3Mk961QcOPg-128" vertex="1">
          <mxGeometry x="200" y="559.97" width="80" height="40" as="geometry" />
        </mxCell>
        <mxCell id="E8q-zRGyP3Mk961QcOPg-273" value="&lt;font&gt;q_cnt_atm&lt;/font&gt;" style="text;html=1;align=center;verticalAlign=middle;whiteSpace=wrap;rounded=0;fontSize=24;" parent="E8q-zRGyP3Mk961QcOPg-128" vertex="1">
          <mxGeometry x="420" y="440" width="80" height="40" as="geometry" />
        </mxCell>
        <mxCell id="E8q-zRGyP3Mk961QcOPg-275" value="&lt;font&gt;alarme&lt;/font&gt;" style="text;html=1;align=center;verticalAlign=middle;whiteSpace=wrap;rounded=0;fontSize=24;" parent="E8q-zRGyP3Mk961QcOPg-128" vertex="1">
          <mxGeometry x="760" y="319.97" width="80" height="40" as="geometry" />
        </mxCell>
        <mxCell id="E8q-zRGyP3Mk961QcOPg-210" style="edgeStyle=orthogonalEdgeStyle;rounded=0;orthogonalLoop=1;jettySize=auto;html=1;endArrow=none;startFill=0;strokeColor=light-dark(#00FF00,#EDEDED);strokeWidth=2;" parent="1" edge="1">
          <mxGeometry relative="1" as="geometry">
            <mxPoint x="920" y="280" as="targetPoint" />
            <mxPoint x="760" y="760" as="sourcePoint" />
            <Array as="points">
              <mxPoint x="760" y="280" />
            </Array>
          </mxGeometry>
        </mxCell>
        <mxCell id="E8q-zRGyP3Mk961QcOPg-211" style="edgeStyle=orthogonalEdgeStyle;rounded=0;orthogonalLoop=1;jettySize=auto;html=1;endArrow=none;startFill=0;strokeColor=#FF0000;strokeWidth=2;fontSize=24;" parent="1" edge="1">
          <mxGeometry relative="1" as="geometry">
            <mxPoint x="920" y="320" as="targetPoint" />
            <mxPoint x="800" y="960" as="sourcePoint" />
            <Array as="points">
              <mxPoint x="800" y="800" />
              <mxPoint x="800" y="160" />
            </Array>
          </mxGeometry>
        </mxCell>
        <mxCell id="E8q-zRGyP3Mk961QcOPg-212" style="edgeStyle=orthogonalEdgeStyle;rounded=0;orthogonalLoop=1;jettySize=auto;html=1;endArrow=none;startFill=0;strokeColor=#CCCCCC;strokeWidth=2;fontSize=24;" parent="1" edge="1">
          <mxGeometry relative="1" as="geometry">
            <mxPoint x="920" y="360" as="targetPoint" />
            <mxPoint x="840" y="1000" as="sourcePoint" />
            <Array as="points">
              <mxPoint x="840" y="360" />
            </Array>
          </mxGeometry>
        </mxCell>
        <mxCell id="E8q-zRGyP3Mk961QcOPg-214" style="edgeStyle=orthogonalEdgeStyle;rounded=0;orthogonalLoop=1;jettySize=auto;html=1;endArrow=none;startFill=0;strokeColor=#FF0000;strokeWidth=2;fontSize=24;" parent="1" edge="1">
          <mxGeometry relative="1" as="geometry">
            <mxPoint x="2200" y="1520" as="targetPoint" />
            <mxPoint x="800" y="990" as="sourcePoint" />
            <Array as="points">
              <mxPoint x="800" y="1120" />
              <mxPoint x="800" y="1120" />
            </Array>
          </mxGeometry>
        </mxCell>
        <mxCell id="E8q-zRGyP3Mk961QcOPg-225" style="edgeStyle=orthogonalEdgeStyle;rounded=0;orthogonalLoop=1;jettySize=auto;html=1;exitX=1;exitY=0.5;exitDx=0;exitDy=0;endArrow=none;startFill=0;strokeColor=#B266FF;strokeWidth=2;fontSize=24;" parent="1" edge="1">
          <mxGeometry relative="1" as="geometry">
            <mxPoint x="2160" y="1280" as="targetPoint" />
            <mxPoint x="2040" y="1280" as="sourcePoint" />
          </mxGeometry>
        </mxCell>
        <mxCell id="E8q-zRGyP3Mk961QcOPg-226" style="edgeStyle=orthogonalEdgeStyle;rounded=0;orthogonalLoop=1;jettySize=auto;html=1;exitX=1;exitY=0.5;exitDx=0;exitDy=0;endArrow=none;startFill=0;strokeColor=#CC6600;strokeWidth=2;fontSize=24;" parent="1" edge="1">
          <mxGeometry relative="1" as="geometry">
            <mxPoint x="2160" y="1240" as="targetPoint" />
            <mxPoint x="2040" y="1240" as="sourcePoint" />
          </mxGeometry>
        </mxCell>
        <mxCell id="E8q-zRGyP3Mk961QcOPg-227" style="edgeStyle=orthogonalEdgeStyle;rounded=0;orthogonalLoop=1;jettySize=auto;html=1;exitX=1;exitY=0.5;exitDx=0;exitDy=0;endArrow=none;startFill=0;strokeColor=#3333FF;strokeWidth=2;fontSize=24;" parent="1" edge="1">
          <mxGeometry relative="1" as="geometry">
            <mxPoint x="2160" y="1200" as="targetPoint" />
            <mxPoint x="2040" y="1200" as="sourcePoint" />
          </mxGeometry>
        </mxCell>
        <mxCell id="E8q-zRGyP3Mk961QcOPg-228" style="edgeStyle=orthogonalEdgeStyle;rounded=0;orthogonalLoop=1;jettySize=auto;html=1;exitX=1;exitY=0.5;exitDx=0;exitDy=0;endArrow=none;startFill=0;strokeColor=#B266FF;strokeWidth=2;fontSize=24;" parent="1" edge="1">
          <mxGeometry relative="1" as="geometry">
            <mxPoint x="2160" y="1320" as="targetPoint" />
            <mxPoint x="2040" y="1320" as="sourcePoint" />
          </mxGeometry>
        </mxCell>
        <mxCell id="E8q-zRGyP3Mk961QcOPg-229" style="edgeStyle=orthogonalEdgeStyle;rounded=0;orthogonalLoop=1;jettySize=auto;html=1;endArrow=none;startFill=0;strokeColor=#00FF00;strokeWidth=2;" parent="1" edge="1">
          <mxGeometry relative="1" as="geometry">
            <mxPoint x="760" y="920" as="targetPoint" />
            <mxPoint x="2200" y="1560" as="sourcePoint" />
            <Array as="points">
              <mxPoint x="760" y="850" />
              <mxPoint x="760" y="850" />
            </Array>
          </mxGeometry>
        </mxCell>
        <mxCell id="E8q-zRGyP3Mk961QcOPg-230" style="edgeStyle=orthogonalEdgeStyle;rounded=0;orthogonalLoop=1;jettySize=auto;html=1;endArrow=none;startFill=0;strokeColor=#CCCCCC;strokeWidth=2;fontSize=24;" parent="1" edge="1">
          <mxGeometry relative="1" as="geometry">
            <mxPoint x="840" y="1440" as="targetPoint" />
            <mxPoint x="2200" y="1600" as="sourcePoint" />
            <Array as="points">
              <mxPoint x="1205" y="1600" />
              <mxPoint x="840" y="1600" />
            </Array>
          </mxGeometry>
        </mxCell>
        <mxCell id="E8q-zRGyP3Mk961QcOPg-236" value="Légende" style="swimlane;fontStyle=0;childLayout=stackLayout;horizontal=1;startSize=40;horizontalStack=0;resizeParent=1;resizeParentMax=0;resizeLast=0;collapsible=1;marginBottom=0;whiteSpace=wrap;html=1;fontSize=21;strokeWidth=2;" parent="1" vertex="1">
          <mxGeometry x="40" y="40" width="680" height="520" as="geometry" />
        </mxCell>
        <mxCell id="E8q-zRGyP3Mk961QcOPg-237" value="&lt;span style=&quot;color: rgb(0, 255, 0);&quot;&gt;clk_s&lt;/span&gt;&lt;span style=&quot;white-space: pre;&quot;&gt;&#x9;&lt;/span&gt;&lt;span style=&quot;white-space: pre;&quot;&gt;&#x9;&lt;/span&gt;&lt;span style=&quot;white-space: pre;&quot;&gt;&#x9;&lt;/span&gt;&lt;span style=&quot;white-space: pre;&quot;&gt;&#x9;&lt;/span&gt;&lt;span style=&quot;white-space: pre;&quot;&gt;&#x9;&lt;/span&gt;Horloge de référence" style="text;strokeColor=none;fillColor=none;align=left;verticalAlign=middle;spacingLeft=4;spacingRight=4;overflow=hidden;points=[[0,0.5],[1,0.5]];portConstraint=eastwest;rotatable=0;whiteSpace=wrap;html=1;fontSize=21;strokeWidth=2;" parent="E8q-zRGyP3Mk961QcOPg-236" vertex="1">
          <mxGeometry y="40" width="680" height="40" as="geometry" />
        </mxCell>
        <mxCell id="E8q-zRGyP3Mk961QcOPg-238" value="&lt;span style=&quot;color: rgb(255, 0, 0);&quot;&gt;ro_out&lt;/span&gt;&lt;span style=&quot;white-space: pre;&quot;&gt;&#x9;&lt;/span&gt;&lt;span style=&quot;white-space: pre;&quot;&gt;&#x9;&lt;/span&gt;&lt;span style=&quot;white-space: pre;&quot;&gt;&#x9;&lt;/span&gt;&lt;span style=&quot;white-space: pre;&quot;&gt;&#x9;&lt;/span&gt;&lt;span style=&quot;white-space: pre;&quot;&gt;&#x9;&lt;/span&gt;Sortie de l&#39;oscillateur en anneau" style="text;strokeColor=none;fillColor=none;align=left;verticalAlign=middle;spacingLeft=4;spacingRight=4;overflow=hidden;points=[[0,0.5],[1,0.5]];portConstraint=eastwest;rotatable=0;whiteSpace=wrap;html=1;fontSize=21;strokeWidth=2;" parent="E8q-zRGyP3Mk961QcOPg-236" vertex="1">
          <mxGeometry y="80" width="680" height="40" as="geometry" />
        </mxCell>
        <mxCell id="E8q-zRGyP3Mk961QcOPg-239" value="&lt;span style=&quot;color: rgb(204, 204, 204);&quot;&gt;reset&lt;/span&gt;&lt;span style=&quot;white-space: pre;&quot;&gt;&#x9;&lt;/span&gt;&lt;span style=&quot;white-space: pre;&quot;&gt;&#x9;&lt;/span&gt;&lt;span style=&quot;white-space: pre;&quot;&gt;&#x9;&lt;/span&gt;&lt;span style=&quot;white-space: pre;&quot;&gt;&#x9;&lt;/span&gt;&lt;span style=&quot;white-space: pre;&quot;&gt;&#x9;&lt;/span&gt;Reset global" style="text;strokeColor=none;fillColor=none;align=left;verticalAlign=middle;spacingLeft=4;spacingRight=4;overflow=hidden;points=[[0,0.5],[1,0.5]];portConstraint=eastwest;rotatable=0;whiteSpace=wrap;html=1;fontSize=21;strokeWidth=2;" parent="E8q-zRGyP3Mk961QcOPg-236" vertex="1">
          <mxGeometry y="120" width="680" height="40" as="geometry" />
        </mxCell>
        <mxCell id="E8q-zRGyP3Mk961QcOPg-248" value="&lt;span style=&quot;color: rgb(51, 51, 255);&quot;&gt;q_str_d&lt;/span&gt;&lt;span style=&quot;white-space: pre;&quot;&gt;&#x9;&lt;/span&gt;&lt;span style=&quot;white-space: pre;&quot;&gt;&#x9;&lt;/span&gt;&lt;span style=&quot;white-space: pre;&quot;&gt;&#x9;&lt;/span&gt;&lt;span style=&quot;white-space: pre;&quot;&gt;&#x9;&lt;/span&gt;&lt;span style=&quot;white-space: pre;&quot;&gt;&#x9;&lt;/span&gt;Valeur du compteur du détecteur" style="text;strokeColor=none;fillColor=none;align=left;verticalAlign=middle;spacingLeft=4;spacingRight=4;overflow=hidden;points=[[0,0.5],[1,0.5]];portConstraint=eastwest;rotatable=0;whiteSpace=wrap;html=1;fontSize=21;strokeWidth=2;" parent="E8q-zRGyP3Mk961QcOPg-236" vertex="1">
          <mxGeometry y="160" width="680" height="40" as="geometry" />
        </mxCell>
        <mxCell id="E8q-zRGyP3Mk961QcOPg-246" value="&lt;span style=&quot;color: rgb(0, 204, 204);&quot;&gt;q_str_atm&lt;/span&gt;&lt;span style=&quot;white-space: pre;&quot;&gt;&#x9;&lt;/span&gt;&lt;span style=&quot;white-space: pre;&quot;&gt;&#x9;&lt;/span&gt;&lt;span style=&quot;white-space: pre;&quot;&gt;&#x9;&lt;/span&gt;&lt;span style=&quot;white-space: pre;&quot;&gt;&#x9;&lt;/span&gt;Valeur du compteur de l&#39;ATM" style="text;strokeColor=none;fillColor=none;align=left;verticalAlign=middle;spacingLeft=4;spacingRight=4;overflow=hidden;points=[[0,0.5],[1,0.5]];portConstraint=eastwest;rotatable=0;whiteSpace=wrap;html=1;fontSize=21;strokeWidth=2;" parent="E8q-zRGyP3Mk961QcOPg-236" vertex="1">
          <mxGeometry y="200" width="680" height="40" as="geometry" />
        </mxCell>
        <mxCell id="E8q-zRGyP3Mk961QcOPg-247" value="&lt;span style=&quot;color: rgb(178, 102, 255);&quot;&gt;x_moins_out/x_plus_out&lt;/span&gt;&lt;span style=&quot;white-space: pre;&quot;&gt;&#x9;&lt;/span&gt;&lt;span style=&quot;white-space: pre;&quot;&gt;&#x9;&lt;/span&gt;Valeurs de l&#39;intervalle du détecteur" style="text;strokeColor=none;fillColor=none;align=left;verticalAlign=middle;spacingLeft=4;spacingRight=4;overflow=hidden;points=[[0,0.5],[1,0.5]];portConstraint=eastwest;rotatable=0;whiteSpace=wrap;html=1;fontSize=21;strokeWidth=2;" parent="E8q-zRGyP3Mk961QcOPg-236" vertex="1">
          <mxGeometry y="240" width="680" height="40" as="geometry" />
        </mxCell>
        <mxCell id="E8q-zRGyP3Mk961QcOPg-251" value="&lt;span style=&quot;color: rgb(153, 0, 153);&quot;&gt;y_moins_out/y_plus_out&lt;/span&gt;&lt;span style=&quot;white-space: pre;&quot;&gt;&#x9;&lt;/span&gt;&lt;span style=&quot;white-space: pre;&quot;&gt;&#x9;&lt;/span&gt;Valeurs de l&#39;intervalle de l&#39;ATM" style="text;strokeColor=none;fillColor=none;align=left;verticalAlign=middle;spacingLeft=4;spacingRight=4;overflow=hidden;points=[[0,0.5],[1,0.5]];portConstraint=eastwest;rotatable=0;whiteSpace=wrap;html=1;fontSize=21;strokeWidth=2;" parent="E8q-zRGyP3Mk961QcOPg-236" vertex="1">
          <mxGeometry y="280" width="680" height="40" as="geometry" />
        </mxCell>
        <mxCell id="E8q-zRGyP3Mk961QcOPg-252" value="&lt;span style=&quot;color: rgb(204, 102, 0);&quot;&gt;Alarme_Detector&lt;/span&gt;&lt;span style=&quot;white-space: pre;&quot;&gt;&#x9;&lt;/span&gt;&lt;span style=&quot;white-space: pre;&quot;&gt;&#x9;&lt;/span&gt;&lt;span style=&quot;white-space: pre;&quot;&gt;&#x9;&lt;/span&gt;Alarme du détecteur" style="text;strokeColor=none;fillColor=none;align=left;verticalAlign=middle;spacingLeft=4;spacingRight=4;overflow=hidden;points=[[0,0.5],[1,0.5]];portConstraint=eastwest;rotatable=0;whiteSpace=wrap;html=1;fontSize=21;strokeWidth=2;" parent="E8q-zRGyP3Mk961QcOPg-236" vertex="1">
          <mxGeometry y="320" width="680" height="40" as="geometry" />
        </mxCell>
        <mxCell id="E8q-zRGyP3Mk961QcOPg-254" value="&lt;span style=&quot;color: rgb(204, 204, 0);&quot;&gt;Alarme_ATM&lt;/span&gt;&lt;span style=&quot;white-space: pre;&quot;&gt;&#x9;&lt;/span&gt;&lt;span style=&quot;white-space: pre;&quot;&gt;&#x9;&lt;/span&gt;&lt;span style=&quot;white-space: pre;&quot;&gt;&#x9;&lt;/span&gt;&lt;span style=&quot;white-space: pre;&quot;&gt;&#x9;&lt;/span&gt;Alarme de l&#39;ATM" style="text;strokeColor=none;fillColor=none;align=left;verticalAlign=middle;spacingLeft=4;spacingRight=4;overflow=hidden;points=[[0,0.5],[1,0.5]];portConstraint=eastwest;rotatable=0;whiteSpace=wrap;html=1;fontSize=21;strokeWidth=2;" parent="E8q-zRGyP3Mk961QcOPg-236" vertex="1">
          <mxGeometry y="360" width="680" height="40" as="geometry" />
        </mxCell>
        <mxCell id="E8q-zRGyP3Mk961QcOPg-250" value="&lt;div&gt;&lt;span style=&quot;color: rgb(255, 0, 128);&quot;&gt;edge_count/edges_done&lt;/span&gt;&lt;span style=&quot;white-space: pre;&quot;&gt;&#x9;&lt;/span&gt;Nombre de périodes de clk_s pour l&#39;ATM&lt;/div&gt;&lt;div&gt;&lt;span style=&quot;white-space: pre;&quot;&gt;&#x9;&lt;/span&gt;&lt;span style=&quot;white-space: pre;&quot;&gt;&#x9;&lt;/span&gt;&lt;span style=&quot;white-space: pre;&quot;&gt;&#x9;&lt;/span&gt;&lt;span style=&quot;white-space: pre;&quot;&gt;&#x9;&lt;/span&gt;&lt;span style=&quot;white-space: pre;&quot;&gt;&#x9;&lt;/span&gt;&lt;span style=&quot;white-space: pre;&quot;&gt;&#x9;&lt;/span&gt;Flag de fin pour le compteur&lt;/div&gt;" style="text;strokeColor=none;fillColor=none;align=left;verticalAlign=middle;spacingLeft=4;spacingRight=4;overflow=hidden;points=[[0,0.5],[1,0.5]];portConstraint=eastwest;rotatable=0;whiteSpace=wrap;html=1;fontSize=21;strokeWidth=2;" parent="E8q-zRGyP3Mk961QcOPg-236" vertex="1">
          <mxGeometry y="400" width="680" height="80" as="geometry" />
        </mxCell>
        <mxCell id="E8q-zRGyP3Mk961QcOPg-255" value="Signaux internes&lt;span style=&quot;white-space: pre;&quot;&gt;&#x9;&lt;/span&gt;&lt;span style=&quot;white-space: pre;&quot;&gt;&#x9;&lt;/span&gt;&lt;span style=&quot;white-space: pre;&quot;&gt;&#x9;&lt;/span&gt;Signaux internes" style="text;strokeColor=none;fillColor=none;align=left;verticalAlign=middle;spacingLeft=4;spacingRight=4;overflow=hidden;points=[[0,0.5],[1,0.5]];portConstraint=eastwest;rotatable=0;whiteSpace=wrap;html=1;fontSize=21;strokeWidth=2;" parent="E8q-zRGyP3Mk961QcOPg-236" vertex="1">
          <mxGeometry y="480" width="680" height="40" as="geometry" />
        </mxCell>
        <mxCell id="E8q-zRGyP3Mk961QcOPg-259" value="" style="edgeStyle=orthogonalEdgeStyle;rounded=0;orthogonalLoop=1;jettySize=auto;html=1;exitX=0;exitY=0.5;exitDx=0;exitDy=0;endArrow=none;startFill=0;strokeWidth=2;" parent="1" source="E8q-zRGyP3Mk961QcOPg-110" edge="1">
          <mxGeometry relative="1" as="geometry">
            <mxPoint x="40" y="960" as="targetPoint" />
            <mxPoint x="200" y="960" as="sourcePoint" />
          </mxGeometry>
        </mxCell>
        <mxCell id="E8q-zRGyP3Mk961QcOPg-260" value="&lt;font style=&quot;font-size: 24px;&quot;&gt;enable_ro&lt;/font&gt;" style="text;html=1;align=center;verticalAlign=middle;whiteSpace=wrap;rounded=0;" parent="1" vertex="1">
          <mxGeometry x="40" y="920" width="80" height="40" as="geometry" />
        </mxCell>
        <mxCell id="E8q-zRGyP3Mk961QcOPg-261" value="&lt;font style=&quot;font-size: 22px;&quot;&gt;enable_siro&lt;/font&gt;" style="text;html=1;align=center;verticalAlign=middle;whiteSpace=wrap;rounded=0;" parent="1" vertex="1">
          <mxGeometry x="40" y="1120" width="80" height="40" as="geometry" />
        </mxCell>
        <mxCell id="E8q-zRGyP3Mk961QcOPg-278" value="&lt;font style=&quot;color: rgb(0, 255, 0);&quot;&gt;clk_s&lt;/font&gt;" style="text;html=1;align=center;verticalAlign=middle;whiteSpace=wrap;rounded=0;fontSize=24;" parent="1" vertex="1">
          <mxGeometry x="2200" y="1540" width="80" height="40" as="geometry" />
        </mxCell>
        <mxCell id="E8q-zRGyP3Mk961QcOPg-280" value="&lt;font style=&quot;color: rgb(204, 204, 204);&quot;&gt;reset&lt;/font&gt;" style="text;html=1;align=center;verticalAlign=middle;whiteSpace=wrap;rounded=0;fontSize=24;" parent="1" vertex="1">
          <mxGeometry x="2200" y="1580" width="80" height="40" as="geometry" />
        </mxCell>
        <mxCell id="E8q-zRGyP3Mk961QcOPg-282" value="&lt;font style=&quot;color: rgb(255, 0, 0);&quot;&gt;ro_out&lt;/font&gt;" style="text;html=1;align=center;verticalAlign=middle;whiteSpace=wrap;rounded=0;fontSize=24;" parent="1" vertex="1">
          <mxGeometry x="2200" y="1500" width="80" height="40" as="geometry" />
        </mxCell>
        <mxCell id="E8q-zRGyP3Mk961QcOPg-283" value="&lt;font style=&quot;color: rgb(178, 102, 255);&quot;&gt;x_moins_out&lt;/font&gt;" style="text;html=1;align=center;verticalAlign=middle;whiteSpace=wrap;rounded=0;fontSize=24;" parent="1" vertex="1">
          <mxGeometry x="2210" y="1300" width="80" height="40" as="geometry" />
        </mxCell>
        <mxCell id="E8q-zRGyP3Mk961QcOPg-284" value="&lt;font style=&quot;color: rgb(178, 102, 255);&quot;&gt;x_plus_out&lt;/font&gt;" style="text;html=1;align=center;verticalAlign=middle;whiteSpace=wrap;rounded=0;fontSize=24;" parent="1" vertex="1">
          <mxGeometry x="2210" y="1260" width="80" height="40" as="geometry" />
        </mxCell>
        <mxCell id="E8q-zRGyP3Mk961QcOPg-285" value="&lt;font style=&quot;color: rgb(204, 102, 0);&quot;&gt;Alarme_Detector&lt;/font&gt;" style="text;html=1;align=center;verticalAlign=middle;whiteSpace=wrap;rounded=0;fontSize=24;" parent="1" vertex="1">
          <mxGeometry x="2210" y="1220" width="80" height="40" as="geometry" />
        </mxCell>
        <mxCell id="E8q-zRGyP3Mk961QcOPg-286" value="&lt;font style=&quot;color: rgb(51, 51, 255);&quot;&gt;q_str_d&lt;/font&gt;" style="text;html=1;align=center;verticalAlign=middle;whiteSpace=wrap;rounded=0;fontSize=24;" parent="1" vertex="1">
          <mxGeometry x="2200" y="1180" width="80" height="40" as="geometry" />
        </mxCell>
        <mxCell id="E8q-zRGyP3Mk961QcOPg-287" value="&lt;font style=&quot;color: rgb(0, 204, 204);&quot;&gt;q_str_atm&lt;/font&gt;" style="text;html=1;align=center;verticalAlign=middle;whiteSpace=wrap;rounded=0;fontSize=24;" parent="1" vertex="1">
          <mxGeometry x="2200" y="660" width="80" height="40" as="geometry" />
        </mxCell>
        <mxCell id="E8q-zRGyP3Mk961QcOPg-288" value="&lt;font style=&quot;color: rgb(153, 0, 153);&quot;&gt;y_plus_out&lt;/font&gt;" style="text;html=1;align=center;verticalAlign=middle;whiteSpace=wrap;rounded=0;fontSize=24;" parent="1" vertex="1">
          <mxGeometry x="2200" y="580" width="80" height="40" as="geometry" />
        </mxCell>
        <mxCell id="E8q-zRGyP3Mk961QcOPg-289" value="&lt;font style=&quot;color: rgb(153, 0, 153);&quot;&gt;y_moins_out&lt;/font&gt;" style="text;html=1;align=center;verticalAlign=middle;whiteSpace=wrap;rounded=0;fontSize=24;" parent="1" vertex="1">
          <mxGeometry x="2210" y="620" width="80" height="40" as="geometry" />
        </mxCell>
        <mxCell id="E8q-zRGyP3Mk961QcOPg-290" value="&lt;font&gt;&lt;span style=&quot;color: rgb(204, 204, 0);&quot;&gt;Alarme_ATM&lt;/span&gt;&lt;/font&gt;" style="text;html=1;align=center;verticalAlign=middle;whiteSpace=wrap;rounded=0;fontSize=24;" parent="1" vertex="1">
          <mxGeometry x="2210" y="340" width="80" height="40" as="geometry" />
        </mxCell>
        <mxCell id="E8q-zRGyP3Mk961QcOPg-292" value="&lt;font style=&quot;color: rgb(255, 0, 128);&quot;&gt;edge_count&lt;/font&gt;" style="text;html=1;align=center;verticalAlign=middle;whiteSpace=wrap;rounded=0;fontSize=24;" parent="1" vertex="1">
          <mxGeometry x="2210" y="260" width="80" height="40" as="geometry" />
        </mxCell>
        <mxCell id="E8q-zRGyP3Mk961QcOPg-293" value="&lt;font style=&quot;color: rgb(255, 0, 128);&quot;&gt;edges_done&lt;/font&gt;" style="text;html=1;align=center;verticalAlign=middle;whiteSpace=wrap;rounded=0;fontSize=24;" parent="1" vertex="1">
          <mxGeometry x="2210" y="300" width="80" height="40" as="geometry" />
        </mxCell>
        <mxCell id="E8q-zRGyP3Mk961QcOPg-294" value="&lt;font style=&quot;font-size: 16px; color: rgb(204, 204, 204);&quot;&gt;reset&lt;/font&gt;" style="text;html=1;align=center;verticalAlign=middle;whiteSpace=wrap;rounded=0;" parent="1" vertex="1">
          <mxGeometry x="40" y="1400" width="80" height="40" as="geometry" />
        </mxCell>
        <mxCell id="E8q-zRGyP3Mk961QcOPg-296" value="&lt;font style=&quot;color: rgb(255, 0, 0); font-size: 24px;&quot;&gt;ro_out&lt;/font&gt;" style="text;html=1;align=center;verticalAlign=middle;whiteSpace=wrap;rounded=0;" parent="1" vertex="1">
          <mxGeometry x="600" y="950" width="80" height="40" as="geometry" />
        </mxCell>
        <mxCell id="E8q-zRGyP3Mk961QcOPg-297" value="&lt;font style=&quot;color: rgb(0, 255, 0);&quot;&gt;clk_s&lt;/font&gt;" style="text;html=1;align=center;verticalAlign=middle;whiteSpace=wrap;rounded=0;fontSize=24;" parent="1" vertex="1">
          <mxGeometry x="320" y="600" width="80" height="40" as="geometry" />
        </mxCell>
        <mxCell id="E8q-zRGyP3Mk961QcOPg-300" value="&lt;font style=&quot;color: rgb(0, 255, 0);&quot;&gt;clk_s&lt;/font&gt;" style="text;html=1;align=center;verticalAlign=middle;whiteSpace=wrap;rounded=0;fontSize=24;" parent="1" vertex="1">
          <mxGeometry x="840" y="880" width="80" height="40" as="geometry" />
        </mxCell>
        <mxCell id="E8q-zRGyP3Mk961QcOPg-301" value="&lt;font style=&quot;color: rgb(204, 204, 204);&quot;&gt;reset&lt;/font&gt;" style="text;html=1;align=center;verticalAlign=middle;whiteSpace=wrap;rounded=0;fontSize=24;" parent="1" vertex="1">
          <mxGeometry x="840" y="959.97" width="80" height="40" as="geometry" />
        </mxCell>
        <mxCell id="E8q-zRGyP3Mk961QcOPg-302" value="&lt;font style=&quot;color: rgb(255, 0, 0);&quot;&gt;ro_out&lt;/font&gt;" style="text;html=1;align=center;verticalAlign=middle;whiteSpace=wrap;rounded=0;fontSize=24;" parent="1" vertex="1">
          <mxGeometry x="840" y="920" width="80" height="40" as="geometry" />
        </mxCell>
        <mxCell id="E8q-zRGyP3Mk961QcOPg-306" value="&lt;font style=&quot;color: rgb(0, 255, 0);&quot;&gt;clk_s&lt;/font&gt;" style="text;html=1;align=center;verticalAlign=middle;whiteSpace=wrap;rounded=0;fontSize=24;" parent="1" vertex="1">
          <mxGeometry x="840" y="240.01" width="80" height="40" as="geometry" />
        </mxCell>
        <mxCell id="E8q-zRGyP3Mk961QcOPg-307" value="&lt;font style=&quot;color: rgb(204, 204, 204);&quot;&gt;reset&lt;/font&gt;" style="text;html=1;align=center;verticalAlign=middle;whiteSpace=wrap;rounded=0;fontSize=24;" parent="1" vertex="1">
          <mxGeometry x="840" y="319.98" width="80" height="40" as="geometry" />
        </mxCell>
        <mxCell id="E8q-zRGyP3Mk961QcOPg-308" value="&lt;font style=&quot;color: rgb(255, 0, 0);&quot;&gt;ro_out&lt;/font&gt;" style="text;html=1;align=center;verticalAlign=middle;whiteSpace=wrap;rounded=0;fontSize=24;" parent="1" vertex="1">
          <mxGeometry x="840" y="280.01" width="80" height="40" as="geometry" />
        </mxCell>
        <mxCell id="E8q-zRGyP3Mk961QcOPg-309" value="&lt;font style=&quot;font-size: 24px;&quot;&gt;gbf_out&lt;/font&gt;" style="text;html=1;align=center;verticalAlign=middle;whiteSpace=wrap;rounded=0;" parent="1" vertex="1">
          <mxGeometry x="320" y="680" width="80" height="40" as="geometry" />
        </mxCell>
      </root>
    </mxGraphModel>
  </diagram>
</mxfile>
